<svg width="171" height="40" viewBox="0 0 171 40" fill="none" xmlns="http://www.w3.org/2000/svg">
<path d="M63.984 26.016H59.792L59.12 28H56.256L60.32 16.768H63.488L67.552 28H64.656L63.984 26.016ZM63.28 23.904L61.888 19.792L60.512 23.904H63.28ZM74.2449 28L71.5249 24.256V28H68.7889V16.16H71.5249V22.704L74.2289 19.072H77.6049L73.8929 23.552L77.6369 28H74.2449ZM82.3115 28.128C81.5328 28.128 80.8395 27.9947 80.2315 27.728C79.6235 27.4613 79.1435 27.0987 78.7915 26.64C78.4395 26.1707 78.2422 25.648 78.1995 25.072H80.9035C80.9355 25.3813 81.0795 25.632 81.3355 25.824C81.5915 26.016 81.9062 26.112 82.2795 26.112C82.6208 26.112 82.8822 26.048 83.0635 25.92C83.2555 25.7813 83.3515 25.6053 83.3515 25.392C83.3515 25.136 83.2182 24.9493 82.9515 24.832C82.6848 24.704 82.2528 24.5653 81.6555 24.416C81.0155 24.2667 80.4822 24.112 80.0555 23.952C79.6288 23.7813 79.2608 23.52 78.9515 23.168C78.6422 22.8053 78.4875 22.32 78.4875 21.712C78.4875 21.2 78.6262 20.736 78.9035 20.32C79.1915 19.8933 79.6075 19.5573 80.1515 19.312C80.7062 19.0667 81.3622 18.944 82.1195 18.944C83.2395 18.944 84.1195 19.2213 84.7595 19.776C85.4102 20.3307 85.7835 21.0667 85.8795 21.984H83.3515C83.3088 21.6747 83.1702 21.4293 82.9355 21.248C82.7115 21.0667 82.4128 20.976 82.0395 20.976C81.7195 20.976 81.4742 21.04 81.3035 21.168C81.1328 21.2853 81.0475 21.4507 81.0475 21.664C81.0475 21.92 81.1808 22.112 81.4475 22.24C81.7248 22.368 82.1515 22.496 82.7275 22.624C83.3888 22.7947 83.9275 22.9653 84.3435 23.136C84.7595 23.296 85.1222 23.5627 85.4315 23.936C85.7515 24.2987 85.9168 24.7893 85.9275 25.408C85.9275 25.9307 85.7782 26.4 85.4795 26.816C85.1915 27.2213 84.7702 27.5413 84.2155 27.776C83.6715 28.0107 83.0368 28.128 82.3115 28.128ZM88.9774 18.144C88.4974 18.144 88.1027 18.0053 87.7934 17.728C87.4947 17.44 87.3454 17.088 87.3454 16.672C87.3454 16.2453 87.4947 15.8933 87.7934 15.616C88.1027 15.328 88.4974 15.184 88.9774 15.184C89.4467 15.184 89.8307 15.328 90.1294 15.616C90.4387 15.8933 90.5934 16.2453 90.5934 16.672C90.5934 17.088 90.4387 17.44 90.1294 17.728C89.8307 18.0053 89.4467 18.144 88.9774 18.144ZM90.3374 19.072V28H87.6014V19.072H90.3374ZM91.8561 22.368C91.8561 21.2587 92.0961 20.272 92.5761 19.408C93.0561 18.5333 93.7228 17.856 94.5761 17.376C95.4401 16.8853 96.4161 16.64 97.5041 16.64C98.8375 16.64 99.9788 16.992 100.928 17.696C101.877 18.4 102.512 19.36 102.832 20.576H99.8241C99.6001 20.1067 99.2801 19.7493 98.8641 19.504C98.4588 19.2587 97.9948 19.136 97.4721 19.136C96.6295 19.136 95.9468 19.4293 95.4241 20.016C94.9015 20.6027 94.6401 21.3867 94.6401 22.368C94.6401 23.3493 94.9015 24.1333 95.4241 24.72C95.9468 25.3067 96.6295 25.6 97.4721 25.6C97.9948 25.6 98.4588 25.4773 98.8641 25.232C99.2801 24.9867 99.6001 24.6293 99.8241 24.16H102.832C102.512 25.376 101.877 26.336 100.928 27.04C99.9788 27.7333 98.8375 28.08 97.5041 28.08C96.4161 28.08 95.4401 27.84 94.5761 27.36C93.7228 26.8693 93.0561 26.192 92.5761 25.328C92.0961 24.464 91.8561 23.4773 91.8561 22.368ZM112.924 23.392C112.924 23.648 112.908 23.9147 112.876 24.192H106.684C106.726 24.7467 106.902 25.1733 107.212 25.472C107.532 25.76 107.921 25.904 108.38 25.904C109.062 25.904 109.537 25.616 109.804 25.04H112.716C112.566 25.6267 112.294 26.1547 111.9 26.624C111.516 27.0933 111.03 27.4613 110.444 27.728C109.857 27.9947 109.201 28.128 108.476 28.128C107.601 28.128 106.822 27.9413 106.14 27.568C105.457 27.1947 104.924 26.6613 104.54 25.968C104.156 25.2747 103.964 24.464 103.964 23.536C103.964 22.608 104.15 21.7973 104.524 21.104C104.908 20.4107 105.441 19.8773 106.124 19.504C106.806 19.1307 107.59 18.944 108.476 18.944C109.34 18.944 110.108 19.1253 110.78 19.488C111.452 19.8507 111.974 20.368 112.348 21.04C112.732 21.712 112.924 22.496 112.924 23.392ZM110.124 22.672C110.124 22.2027 109.964 21.8293 109.644 21.552C109.324 21.2747 108.924 21.136 108.444 21.136C107.985 21.136 107.596 21.2693 107.276 21.536C106.966 21.8027 106.774 22.1813 106.7 22.672H110.124ZM119.807 18.976C120.852 18.976 121.684 19.3173 122.303 20C122.932 20.672 123.247 21.6 123.247 22.784V28H120.527V23.152C120.527 22.5547 120.372 22.0907 120.063 21.76C119.754 21.4293 119.338 21.264 118.815 21.264C118.292 21.264 117.876 21.4293 117.567 21.76C117.258 22.0907 117.103 22.5547 117.103 23.152V28H114.367V19.072H117.103V20.256C117.38 19.8613 117.754 19.552 118.223 19.328C118.692 19.0933 119.22 18.976 119.807 18.976ZM124.604 23.52C124.604 22.6027 124.775 21.7973 125.116 21.104C125.468 20.4107 125.943 19.8773 126.54 19.504C127.138 19.1307 127.804 18.944 128.54 18.944C129.127 18.944 129.66 19.0667 130.14 19.312C130.631 19.5573 131.015 19.888 131.292 20.304V16.16H134.028V28H131.292V26.72C131.036 27.1467 130.668 27.488 130.188 27.744C129.719 28 129.17 28.128 128.54 28.128C127.804 28.128 127.138 27.9413 126.54 27.568C125.943 27.184 125.468 26.6453 125.116 25.952C124.775 25.248 124.604 24.4373 124.604 23.52ZM131.292 23.536C131.292 22.8533 131.1 22.3147 130.716 21.92C130.343 21.5253 129.884 21.328 129.34 21.328C128.796 21.328 128.332 21.5253 127.948 21.92C127.575 22.304 127.388 22.8373 127.388 23.52C127.388 24.2027 127.575 24.7467 127.948 25.152C128.332 25.5467 128.796 25.744 129.34 25.744C129.884 25.744 130.343 25.5467 130.716 25.152C131.1 24.7573 131.292 24.2187 131.292 23.536ZM144.424 23.392C144.424 23.648 144.408 23.9147 144.376 24.192H138.184C138.226 24.7467 138.402 25.1733 138.712 25.472C139.032 25.76 139.421 25.904 139.88 25.904C140.562 25.904 141.037 25.616 141.304 25.04H144.216C144.066 25.6267 143.794 26.1547 143.4 26.624C143.016 27.0933 142.53 27.4613 141.944 27.728C141.357 27.9947 140.701 28.128 139.976 28.128C139.101 28.128 138.322 27.9413 137.64 27.568C136.957 27.1947 136.424 26.6613 136.04 25.968C135.656 25.2747 135.464 24.464 135.464 23.536C135.464 22.608 135.65 21.7973 136.024 21.104C136.408 20.4107 136.941 19.8773 137.624 19.504C138.306 19.1307 139.09 18.944 139.976 18.944C140.84 18.944 141.608 19.1253 142.28 19.488C142.952 19.8507 143.474 20.368 143.848 21.04C144.232 21.712 144.424 22.496 144.424 23.392ZM141.624 22.672C141.624 22.2027 141.464 21.8293 141.144 21.552C140.824 21.2747 140.424 21.136 139.944 21.136C139.485 21.136 139.096 21.2693 138.776 21.536C138.466 21.8027 138.274 22.1813 138.2 22.672H141.624ZM151.323 28L148.603 24.256V28H145.867V16.16H148.603V22.704L151.307 19.072H154.683L150.971 23.552L154.715 28H151.323ZM157.134 18.144C156.654 18.144 156.259 18.0053 155.95 17.728C155.651 17.44 155.502 17.088 155.502 16.672C155.502 16.2453 155.651 15.8933 155.95 15.616C156.259 15.328 156.654 15.184 157.134 15.184C157.603 15.184 157.987 15.328 158.286 15.616C158.595 15.8933 158.75 16.2453 158.75 16.672C158.75 17.088 158.595 17.44 158.286 17.728C157.987 18.0053 157.603 18.144 157.134 18.144ZM158.494 19.072V28H155.758V19.072H158.494ZM159.932 23.52C159.932 22.6027 160.103 21.7973 160.444 21.104C160.796 20.4107 161.271 19.8773 161.868 19.504C162.466 19.1307 163.132 18.944 163.868 18.944C164.498 18.944 165.047 19.072 165.516 19.328C165.996 19.584 166.364 19.92 166.62 20.336V19.072H169.356V28H166.62V26.736C166.354 27.152 165.98 27.488 165.5 27.744C165.031 28 164.482 28.128 163.852 28.128C163.127 28.128 162.466 27.9413 161.868 27.568C161.271 27.184 160.796 26.6453 160.444 25.952C160.103 25.248 159.932 24.4373 159.932 23.52ZM166.62 23.536C166.62 22.8533 166.428 22.3147 166.044 21.92C165.671 21.5253 165.212 21.328 164.668 21.328C164.124 21.328 163.66 21.5253 163.276 21.92C162.903 22.304 162.716 22.8373 162.716 23.52C162.716 24.2027 162.903 24.7467 163.276 25.152C163.66 25.5467 164.124 25.744 164.668 25.744C165.212 25.744 165.671 25.5467 166.044 25.152C166.428 24.7573 166.62 24.2187 166.62 23.536Z" fill="white"/>
<path d="M40 20C40 31.0391 31.0538 40 20 40C8.96095 40 0 31.0538 0 20C0 8.96095 8.94621 0 20 0C31.0538 0 40 8.96095 40 20Z" fill="white"/>
<path d="M24.0676 34.3993C24.0676 34.3993 28.8871 18.9093 6.98583 11.8348C6.98583 11.8348 -1.63613 34.134 21.7095 37.1407C21.7095 37.1407 13.9718 28.7103 13.2349 23.2129C13.2349 23.1981 20.2504 32.8371 24.0676 34.3993Z" fill="#181230"/>
<path d="M20.1915 9.93363C21.966 9.93363 23.4045 8.49513 23.4045 6.72066C23.4045 4.94619 21.966 3.50769 20.1915 3.50769C18.417 3.50769 16.9785 4.94619 16.9785 6.72066C16.9785 8.49513 18.417 9.93363 20.1915 9.93363Z" fill="#181230"/>
<path d="M34.3253 9.78625C29.5501 11.0538 25.9834 12.7929 23.3305 14.7089C20.5449 13.2793 17.671 12.8961 16.4624 12.7781C18.909 13.9572 23.8316 16.8607 25.9834 21.9602C27.5162 19.9263 28.5921 18.305 28.5921 18.305C28.4447 19.9852 27.6488 21.9602 26.6319 23.8909C27.2509 26.3522 27.2214 29.2262 26.1013 32.5718C39.9259 26.8681 34.3253 9.78625 34.3253 9.78625Z" fill="#181230"/>
</svg>
