<svg width="120" height="120" viewBox="0 0 120 120" fill="none" xmlns="http://www.w3.org/2000/svg">
<path d="M120 60C120 93.1172 93.1614 120 60 120C26.8828 120 0 93.1614 0 60C0 26.8828 26.8386 0 60 0C93.1614 0 120 26.8828 120 60Z" fill="#2A52FA"/>
<path d="M72.2034 103.198C72.2034 103.198 86.6618 56.7279 20.958 35.5046C20.958 35.5046 -4.90783 102.402 65.129 111.422C65.129 111.422 41.916 86.131 39.7053 69.6388C39.7053 69.5945 60.7517 98.5113 72.2034 103.198Z" fill="white"/>
<path d="M60.5748 29.801C65.8982 29.801 70.2137 25.4855 70.2137 20.1621C70.2137 14.8387 65.8982 10.5232 60.5748 10.5232C55.2514 10.5232 50.9359 14.8387 50.9359 20.1621C50.9359 25.4855 55.2514 29.801 60.5748 29.801Z" fill="white"/>
<path d="M102.977 29.3589C88.6515 33.1614 77.9514 38.3788 69.9927 44.1268C61.636 39.8379 53.0141 38.6883 49.3884 38.3346C56.7281 41.8718 71.496 50.5822 77.9514 65.8806C82.5498 59.7789 85.7775 54.9153 85.7775 54.9153C85.3354 59.9558 82.9478 65.8806 79.8969 71.6728C81.7539 79.0568 81.6655 87.6787 78.3052 97.7156C119.779 80.6043 102.977 29.3589 102.977 29.3589Z" fill="white"/>
</svg>
