<svg width="24" height="24" viewBox="0 0 24 24" fill="none" xmlns="http://www.w3.org/2000/svg">
<g opacity="0.3" clip-path="url(#clip0_21_724)">
<path fill-rule="evenodd" clip-rule="evenodd" d="M8.5001 5C8.5001 3.80653 8.9742 2.66193 9.81812 1.81802C10.662 0.974106 11.8066 0.5 13.0001 0.5C14.1936 0.5 15.3382 0.974106 16.1821 1.81802C17.026 2.66193 17.5001 3.80653 17.5001 5C17.5001 6.19347 17.026 7.33807 16.1821 8.18198C15.3382 9.02589 14.1936 9.5 13.0001 9.5C11.8066 9.5 10.662 9.02589 9.81812 8.18198C8.9742 7.33807 8.5001 6.19347 8.5001 5ZM4.7511 19.105C4.78482 16.9395 5.66874 14.8741 7.21206 13.3546C8.75538 11.8351 10.8343 10.9834 13.0001 10.9834C15.1659 10.9834 17.2448 11.8351 18.7881 13.3546C20.3315 14.8741 21.2154 16.9395 21.2491 19.105C21.2517 19.2508 21.2117 19.3942 21.1341 19.5176C21.0565 19.641 20.9446 19.7392 20.8121 19.8C18.3613 20.9237 15.6963 21.5037 13.0001 21.5C10.2141 21.5 7.5671 20.892 5.1881 19.8C5.05558 19.7392 4.94367 19.641 4.86606 19.5176C4.78844 19.3942 4.74849 19.2508 4.7511 19.105Z" fill="black"/>
</g>
<defs>
<clipPath id="clip0_21_724">
<rect width="24" height="24" fill="white"/>
</clipPath>
</defs>
</svg>
