<svg width="60" height="60" viewBox="0 0 60 60" fill="none" xmlns="http://www.w3.org/2000/svg">
<circle cx="30" cy="30" r="30" fill="white"/>
<path fill-rule="evenodd" clip-rule="evenodd" d="M20.0682 13H25.5909C27.2184 13 28.7792 13.6397 29.93 14.7783C31.0808 15.9169 31.7273 17.4612 31.7273 19.0714V22.1071C31.7273 23.7845 33.1018 25.1429 34.7955 25.1429H37.8636C39.4911 25.1429 41.0519 25.7825 42.2027 26.9211C43.3535 28.0598 44 29.604 44 31.2143V43.9643C44 45.64 42.6255 47 40.9318 47H20.0682C19.2544 47 18.474 46.6802 17.8986 46.1109C17.3233 45.5416 17 44.7694 17 43.9643V16.0357C17 14.3584 18.3745 13 20.0682 13ZM26.8182 33.6429C26.4927 33.6429 26.1805 33.7708 25.9504 33.9985C25.7202 34.2262 25.5909 34.5351 25.5909 34.8571C25.5909 35.1792 25.7202 35.488 25.9504 35.7158C26.1805 35.9435 26.4927 36.0714 26.8182 36.0714H35.4091C35.7346 36.0714 36.0467 35.9435 36.2769 35.7158C36.5071 35.488 36.6364 35.1792 36.6364 34.8571C36.6364 34.5351 36.5071 34.2262 36.2769 33.9985C36.0467 33.7708 35.7346 33.6429 35.4091 33.6429H26.8182Z" fill="#181230"/>
</svg>
