<svg width="60" height="60" viewBox="0 0 60 60" fill="none" xmlns="http://www.w3.org/2000/svg">
<rect width="60" height="60" rx="30" fill="#1786FA"/>
<path d="M29.2044 19.0704C29.3109 19.024 29.4258 19 29.5419 19C29.6581 19 29.773 19.024 29.8794 19.0704C34.0397 20.8889 38.0082 23.1181 41.7257 25.7248C41.8567 25.8167 41.9589 25.9439 42.0203 26.0917C42.0817 26.2394 42.0999 26.4016 42.0727 26.5593C42.0454 26.717 41.9739 26.8636 41.8664 26.9822C41.759 27.1008 41.62 27.1864 41.4658 27.2289C37.6064 28.2949 33.8719 29.7703 30.326 31.6299L30.3227 31.6322L29.9402 31.8347C29.8178 31.9001 29.6812 31.9343 29.5425 31.9343C29.4038 31.9343 29.2672 31.9001 29.1448 31.8347C27.6246 31.0222 26.0678 30.2801 24.4794 29.6106V29.3586C24.4794 29.2112 24.5548 29.0796 24.6729 29.0087C26.371 27.9797 28.1179 27.0336 29.9075 26.1737C30.1092 26.0767 30.2642 25.9036 30.3382 25.6924C30.4123 25.4812 30.3994 25.2493 30.3024 25.0476C30.2055 24.8459 30.0323 24.691 29.8211 24.6169C29.61 24.5428 29.378 24.5557 29.1763 24.6527C27.3378 25.5361 25.5432 26.5082 23.7988 27.5653C23.5506 27.7159 23.3365 27.9165 23.1701 28.1543C23.0038 28.3922 22.8888 28.6621 22.8324 28.9468C21.1238 28.2894 19.3839 27.716 17.6192 27.2289C17.4649 27.1864 17.326 27.1008 17.2185 26.9822C17.1111 26.8636 17.0396 26.717 17.0123 26.5593C16.9851 26.4016 17.0032 26.2394 17.0647 26.0917C17.1261 25.9439 17.2283 25.8167 17.3593 25.7248C21.0765 23.1182 25.0445 20.889 29.2044 19.0704Z" fill="white"/>
<path d="M30.7344 33.3219C33.4977 31.8456 36.3831 30.6103 39.3587 29.6297C39.5094 31.2204 39.6062 32.828 39.6455 34.4503C39.6497 34.62 39.6025 34.7871 39.5102 34.9296C39.4178 35.0721 39.2847 35.1834 39.128 35.249C35.939 36.581 32.8855 38.2168 30.0099 40.1338C29.8713 40.2262 29.7085 40.2755 29.5419 40.2755C29.3753 40.2755 29.2125 40.2262 29.0739 40.1338C26.1986 38.2168 23.1456 36.5811 19.9569 35.249C19.8001 35.1836 19.6667 35.0724 19.5741 34.9298C19.4816 34.7873 19.4342 34.6202 19.4383 34.4503C19.4777 32.828 19.5744 31.2215 19.7252 29.6285C20.7583 29.9691 21.781 30.3405 22.7919 30.7423V32.171C22.5488 32.3111 22.3445 32.5095 22.1974 32.7484C22.0503 32.9873 21.9651 33.2591 21.9495 33.5392C21.9338 33.8193 21.9883 34.0988 22.1079 34.3526C22.2275 34.6064 22.4084 34.8263 22.6344 34.9925C22.5332 35.42 22.3847 35.8397 22.1878 36.2413C22.6963 36.4809 23.2014 36.7295 23.702 36.9849C23.9843 36.4105 24.1926 35.8027 24.3219 35.1759C24.6064 35.0494 24.8504 34.8467 25.0268 34.5901C25.2032 34.3336 25.3052 34.0332 25.3215 33.7223C25.3378 33.4114 25.2678 33.102 25.1192 32.8284C24.9705 32.5549 24.7491 32.3277 24.4794 32.1722V31.4465C25.7936 32.021 27.0846 32.647 28.3494 33.323C28.7163 33.519 29.1259 33.6215 29.5419 33.6215C29.9579 33.6215 30.3675 33.519 30.7344 33.323V33.3219Z" fill="white"/>
<path d="M21.0617 37.8096C21.5342 37.3382 21.9088 36.8083 22.1867 36.2413C22.6963 36.481 23.2014 36.7296 23.702 36.985C23.3339 37.7326 22.8451 38.4145 22.2553 39.0032C22.1781 39.0861 22.0849 39.1526 21.9814 39.1987C21.8779 39.2448 21.7662 39.2696 21.6529 39.2716C21.5396 39.2736 21.4271 39.2528 21.322 39.2103C21.2169 39.1679 21.1215 39.1047 21.0414 39.0246C20.9613 38.9445 20.8981 38.8491 20.8557 38.744C20.8132 38.6389 20.7924 38.5264 20.7944 38.4131C20.7964 38.2998 20.8212 38.1881 20.8673 38.0846C20.9134 37.9811 20.9799 37.888 21.0628 37.8107L21.0617 37.8096Z" fill="white"/>
</svg>
