<svg width="24" height="24" viewBox="0 0 24 24" fill="none" xmlns="http://www.w3.org/2000/svg">
<path fill-rule="evenodd" clip-rule="evenodd" d="M4.5 2.25C4.30109 2.25 4.11032 2.32902 3.96967 2.46967C3.82902 2.61032 3.75 2.80109 3.75 3C3.75 3.19891 3.82902 3.38968 3.96967 3.53033C4.11032 3.67098 4.30109 3.75 4.5 3.75V20.25H3.75C3.55109 20.25 3.36032 20.329 3.21967 20.4697C3.07902 20.6103 3 20.8011 3 21C3 21.1989 3.07902 21.3897 3.21967 21.5303C3.36032 21.671 3.55109 21.75 3.75 21.75H20.25C20.4489 21.75 20.6397 21.671 20.7803 21.5303C20.921 21.3897 21 21.1989 21 21C21 20.8011 20.921 20.6103 20.7803 20.4697C20.6397 20.329 20.4489 20.25 20.25 20.25H19.5V3.75C19.6989 3.75 19.8897 3.67098 20.0303 3.53033C20.171 3.38968 20.25 3.19891 20.25 3C20.25 2.80109 20.171 2.61032 20.0303 2.46967C19.8897 2.32902 19.6989 2.25 19.5 2.25H4.5ZM9 6C8.80109 6 8.61032 6.07902 8.46967 6.21967C8.32902 6.36032 8.25 6.55109 8.25 6.75C8.25 6.94891 8.32902 7.13968 8.46967 7.28033C8.61032 7.42098 8.80109 7.5 9 7.5H10.5C10.6989 7.5 10.8897 7.42098 11.0303 7.28033C11.171 7.13968 11.25 6.94891 11.25 6.75C11.25 6.55109 11.171 6.36032 11.0303 6.21967C10.8897 6.07902 10.6989 6 10.5 6H9ZM8.25 9.75C8.25 9.55109 8.32902 9.36032 8.46967 9.21967C8.61032 9.07902 8.80109 9 9 9H10.5C10.6989 9 10.8897 9.07902 11.0303 9.21967C11.171 9.36032 11.25 9.55109 11.25 9.75C11.25 9.94891 11.171 10.1397 11.0303 10.2803C10.8897 10.421 10.6989 10.5 10.5 10.5H9C8.80109 10.5 8.61032 10.421 8.46967 10.2803C8.32902 10.1397 8.25 9.94891 8.25 9.75ZM9 12C8.80109 12 8.61032 12.079 8.46967 12.2197C8.32902 12.3603 8.25 12.5511 8.25 12.75C8.25 12.9489 8.32902 13.1397 8.46967 13.2803C8.61032 13.421 8.80109 13.5 9 13.5H10.5C10.6989 13.5 10.8897 13.421 11.0303 13.2803C11.171 13.1397 11.25 12.9489 11.25 12.75C11.25 12.5511 11.171 12.3603 11.0303 12.2197C10.8897 12.079 10.6989 12 10.5 12H9ZM12.75 6.75C12.75 6.55109 12.829 6.36032 12.9697 6.21967C13.1103 6.07902 13.3011 6 13.5 6H15C15.1989 6 15.3897 6.07902 15.5303 6.21967C15.671 6.36032 15.75 6.55109 15.75 6.75C15.75 6.94891 15.671 7.13968 15.5303 7.28033C15.3897 7.42098 15.1989 7.5 15 7.5H13.5C13.3011 7.5 13.1103 7.42098 12.9697 7.28033C12.829 7.13968 12.75 6.94891 12.75 6.75ZM13.5 9C13.3011 9 13.1103 9.07902 12.9697 9.21967C12.829 9.36032 12.75 9.55109 12.75 9.75C12.75 9.94891 12.829 10.1397 12.9697 10.2803C13.1103 10.421 13.3011 10.5 13.5 10.5H15C15.1989 10.5 15.3897 10.421 15.5303 10.2803C15.671 10.1397 15.75 9.94891 15.75 9.75C15.75 9.55109 15.671 9.36032 15.5303 9.21967C15.3897 9.07902 15.1989 9 15 9H13.5ZM12.75 12.75C12.75 12.5511 12.829 12.3603 12.9697 12.2197C13.1103 12.079 13.3011 12 13.5 12H15C15.1989 12 15.3897 12.079 15.5303 12.2197C15.671 12.3603 15.75 12.5511 15.75 12.75C15.75 12.9489 15.671 13.1397 15.5303 13.2803C15.3897 13.421 15.1989 13.5 15 13.5H13.5C13.3011 13.5 13.1103 13.421 12.9697 13.2803C12.829 13.1397 12.75 12.9489 12.75 12.75ZM9 19.5V17.25C9 17.0511 9.07902 16.8603 9.21967 16.7197C9.36032 16.579 9.55109 16.5 9.75 16.5H14.25C14.4489 16.5 14.6397 16.579 14.7803 16.7197C14.921 16.8603 15 17.0511 15 17.25V19.5C15 19.6989 14.921 19.8897 14.7803 20.0303C14.6397 20.171 14.4489 20.25 14.25 20.25H9.75C9.55109 20.25 9.36032 20.171 9.21967 20.0303C9.07902 19.8897 9 19.6989 9 19.5Z" fill="#B3B3B3"/>
</svg>
