<svg width="24" height="24" viewBox="0 0 24 24" fill="none" xmlns="http://www.w3.org/2000/svg">
<path fill-rule="evenodd" clip-rule="evenodd" d="M12.0001 3.75C10.6764 3.74765 9.38144 4.13661 8.2781 4.868C8.1961 4.92582 8.10334 4.96661 8.0053 4.98794C7.90726 5.00927 7.80593 5.01071 7.70733 4.99218C7.60872 4.97365 7.51483 4.93552 7.43123 4.88005C7.34762 4.82459 7.27599 4.75291 7.22058 4.66926C7.16518 4.58561 7.12711 4.4917 7.10865 4.39308C7.09019 4.29446 7.09171 4.19313 7.11311 4.09511C7.13451 3.99709 7.17536 3.90435 7.23324 3.8224C7.29113 3.74045 7.36487 3.67094 7.4501 3.618C8.69356 2.79587 10.1365 2.32601 11.6257 2.25836C13.1148 2.1907 14.5944 2.52778 15.9073 3.23377C17.2202 3.93975 18.3173 4.98826 19.082 6.26786C19.8466 7.54746 20.2503 9.01033 20.2501 10.501C20.2501 13.515 19.6761 16.398 18.6301 19.044C18.5553 19.2265 18.4116 19.3722 18.2301 19.4495C18.0487 19.5268 17.8441 19.5295 17.6606 19.4571C17.4772 19.3846 17.3297 19.2428 17.25 19.0624C17.1704 18.8819 17.165 18.6774 17.2351 18.493C18.2397 15.9481 18.7537 13.236 18.7501 10.5C18.7501 8.70978 18.0389 6.9929 16.7731 5.72703C15.5072 4.46116 13.7903 3.75 12.0001 3.75ZM6.1571 5.739C6.2392 5.79347 6.30976 5.8636 6.36475 5.94535C6.41974 6.02711 6.45808 6.1189 6.47758 6.21548C6.49708 6.31207 6.49736 6.41154 6.47841 6.50823C6.45945 6.60492 6.42162 6.69693 6.3671 6.779C5.63625 7.88217 5.24765 9.1767 5.2501 10.5C5.2501 12.113 4.7871 13.62 3.9851 14.893C3.87901 15.0614 3.71037 15.1808 3.51627 15.2249C3.32217 15.2689 3.11851 15.2341 2.9501 15.128C2.78168 15.0219 2.66231 14.8533 2.61824 14.6592C2.57417 14.4651 2.60901 14.2614 2.7151 14.093C3.39331 13.0175 3.75223 11.7715 3.7501 10.5C3.7501 8.82 4.2531 7.254 5.1171 5.95C5.17149 5.86782 5.24156 5.79716 5.32328 5.74208C5.405 5.68699 5.49678 5.64855 5.59336 5.62895C5.68995 5.60936 5.78945 5.60899 5.88618 5.62787C5.98291 5.64675 6.07497 5.68451 6.1571 5.739ZM12.0001 7.5C11.2044 7.5 10.4414 7.81607 9.87877 8.37868C9.31617 8.94129 9.0001 9.70435 9.0001 10.5C9.0001 13.6 7.8241 16.427 5.8951 18.556C5.82891 18.629 5.74899 18.6883 5.6599 18.7304C5.57081 18.7725 5.47429 18.7967 5.37586 18.8015C5.27743 18.8064 5.17902 18.7918 5.08623 18.7585C4.99345 18.7253 4.90811 18.6742 4.8351 18.608C4.68763 18.4743 4.59931 18.2876 4.58956 18.0888C4.57981 17.89 4.64943 17.6955 4.7831 17.548C6.53511 15.6191 7.50402 13.1058 7.5001 10.5C7.5001 9.30652 7.9742 8.16193 8.81812 7.31802C9.66203 6.4741 10.8066 6 12.0001 6C13.1936 6 14.3382 6.4741 15.1821 7.31802C16.026 8.16193 16.5001 9.30652 16.5001 10.5C16.5001 11.047 16.4781 11.59 16.4331 12.126C16.4168 12.3242 16.3224 12.5079 16.1707 12.6365C16.019 12.7652 15.8223 12.8283 15.6241 12.812C15.4258 12.7957 15.2422 12.7013 15.1135 12.5496C14.9849 12.3979 14.9218 12.2012 14.9381 12.003C14.9791 11.508 15.0001 11.007 15.0001 10.5C15.0001 9.70435 14.684 8.94129 14.1214 8.37868C13.5588 7.81607 12.7957 7.5 12.0001 7.5ZM12.0001 9.75C12.199 9.75 12.3898 9.82901 12.5304 9.96967C12.6711 10.1103 12.7501 10.3011 12.7501 10.5C12.7558 14.255 11.4146 17.8876 8.9701 20.738C8.8408 20.8892 8.65675 20.9828 8.45843 20.9983C8.26011 21.0137 8.06377 20.9498 7.9126 20.8205C7.76142 20.6912 7.6678 20.5072 7.65233 20.3088C7.63686 20.1105 7.7008 19.9142 7.8301 19.763C10.0423 17.1843 11.2558 13.8975 11.2501 10.5C11.2501 10.3011 11.3291 10.1103 11.4698 9.96967C11.6104 9.82901 11.8012 9.75 12.0001 9.75ZM15.2391 14.933C15.4303 14.9877 15.592 15.116 15.6885 15.2899C15.7851 15.4637 15.8087 15.6688 15.7541 15.86C15.1908 17.833 14.3183 19.7042 13.1691 21.404C13.1139 21.4856 13.0432 21.5556 12.9611 21.6099C12.8789 21.6642 12.7868 21.7017 12.6901 21.7204C12.5934 21.7392 12.4939 21.7386 12.3974 21.7189C12.3009 21.6992 12.2092 21.6607 12.1276 21.6055C12.046 21.5503 11.976 21.4797 11.9217 21.3975C11.8674 21.3153 11.8299 21.2232 11.8111 21.1265C11.7924 21.0298 11.793 20.9303 11.8127 20.8338C11.8324 20.7373 11.8709 20.6456 11.9261 20.564C12.9868 18.9955 13.7922 17.2687 14.3121 15.448C14.3668 15.2568 14.4951 15.0951 14.669 14.9986C14.8428 14.902 15.0479 14.8784 15.2391 14.933Z" fill="#B3B3B3"/>
</svg>
