<svg width="33" height="33" viewBox="0 0 33 33" fill="none" xmlns="http://www.w3.org/2000/svg">
<path fill-rule="evenodd" clip-rule="evenodd" d="M27.3917 28.0783C29.0067 26.5608 30.2933 24.7282 31.1719 22.6937C32.0506 20.6592 32.5026 18.4661 32.5 16.25C32.5 7.275 25.225 0 16.25 0C7.27501 0 1.08487e-05 7.275 1.08487e-05 16.25C-0.00255332 18.4661 0.449456 20.6592 1.32809 22.6937C2.20673 24.7282 3.49333 26.5608 5.10834 28.0783C8.1199 30.9232 12.1073 32.5056 16.25 32.5C20.3928 32.5056 24.3801 30.9232 27.3917 28.0783ZM6.49168 25.9367C7.66181 24.4727 9.1467 23.2912 10.8361 22.4799C12.5254 21.6685 14.3759 21.2481 16.25 21.25C18.1241 21.2481 19.9746 21.6685 21.664 22.4799C23.3533 23.2912 24.8382 24.4727 26.0083 25.9367C24.7317 27.2262 23.2118 28.2494 21.5366 28.9469C19.8615 29.6444 18.0646 30.0023 16.25 30C14.4355 30.0023 12.6385 29.6444 10.9634 28.9469C9.28826 28.2494 7.7683 27.2262 6.49168 25.9367ZM22.5 11.25C22.5 12.9076 21.8415 14.4973 20.6694 15.6694C19.4973 16.8415 17.9076 17.5 16.25 17.5C14.5924 17.5 13.0027 16.8415 11.8306 15.6694C10.6585 14.4973 10 12.9076 10 11.25C10 9.5924 10.6585 8.00268 11.8306 6.83058C13.0027 5.65848 14.5924 5 16.25 5C17.9076 5 19.4973 5.65848 20.6694 6.83058C21.8415 8.00268 22.5 9.5924 22.5 11.25Z" fill="white"/>
</svg>
