<svg width="33" height="33" viewBox="0 0 33 33" fill="none" xmlns="http://www.w3.org/2000/svg">
<rect width="32.5" height="32.5" rx="16.25" fill="#D9D9D9"/>
<path fill-rule="evenodd" clip-rule="evenodd" d="M12.0248 8.25274C14.9983 7.91575 18.0017 7.91575 20.9752 8.25274C22.1546 8.38656 23 9.37566 23 10.5063V22.4224C22.9999 22.5206 22.974 22.6172 22.925 22.703C22.8759 22.7887 22.8052 22.8608 22.7196 22.9124C22.6339 22.964 22.5362 22.9934 22.4357 22.9979C22.3352 23.0023 22.2352 22.9816 22.1452 22.9377L16.5 20.1835L10.8548 22.9393C10.7647 22.9832 10.6645 23.0039 10.5639 22.9994C10.4632 22.9949 10.3654 22.9654 10.2798 22.9136C10.1941 22.8618 10.1234 22.7895 10.0745 22.7035C10.0255 22.6175 9.99987 22.5208 10 22.4224V10.5063C10 9.37566 10.8454 8.38656 12.0248 8.25274Z" fill="#181230"/>
</svg>
